<?xml version="1.0" encoding="UTF-8"?>
<svg width="700pt" height="700pt" version="1.1" viewBox="0 0 700 700" xmlns="http://www.w3.org/2000/svg" xmlns:xlink="http://www.w3.org/1999/xlink">

 <g>
  <path d="m196.32 227.82c-9.7734 2.5898-18.074 9.0391-23.008 17.867-4.9297 8.8242-6.0664 19.277-3.1445 28.957 3.668 12.191 6.0508 24.734 7.1094 37.422 0.64844 9.4961 4.8555 18.395 11.785 24.922 6.9258 6.5234 16.062 10.195 25.578 10.273h5.6055c17.648 39.523 43.582 74.789 76.051 103.41 10.137 9.0898 22.281 15.656 35.438 19.164v-381.05c-64.543 6.5078-126.73 48.691-135.41 139.03z"/>
  <path d="m469.75 421.51h29.27c4.3086 6.2031 11.066 10.27 18.566 11.168 7.5 0.89844 15.027-1.4609 20.676-6.4727 5.6484-5.0156 8.8828-12.207 8.8828-19.762 0-7.5547-3.2344-14.746-8.8828-19.762-5.6484-5.0156-13.176-7.3711-20.676-6.4727-7.5 0.89844-14.258 4.9609-18.566 11.168h-23.031l-31.16-31.16c-2.8281-2.8242-6.6602-4.4141-10.66-4.4141h-35.023v-31.734h61.02v-30.133h-61.02v-31.734h73.457c4.3086 6.2031 11.066 10.27 18.566 11.164 7.4961 0.89844 15.02-1.457 20.668-6.4727 5.6523-5.0117 8.8828-12.203 8.8828-19.758 0-7.5508-3.2305-14.742-8.8828-19.758-5.6484-5.0117-13.172-7.3672-20.668-6.4727-7.5 0.89844-14.258 4.9609-18.566 11.164h-73.457v-27.871h35.023c4 0 7.832-1.5859 10.66-4.4141l31.16-31.16h23.031v0.003906c4.3086 6.2031 11.062 10.266 18.562 11.164 7.5 0.89453 15.023-1.4609 20.672-6.4727 5.6484-5.0156 8.8828-12.207 8.8828-19.758 0-7.5547-3.2344-14.746-8.8828-19.758-5.6484-5.0156-13.172-7.3711-20.672-6.4727-7.5 0.89453-14.254 4.9609-18.562 11.164h-29.27c-3.9961 0-7.8281 1.5859-10.656 4.4141l-31.16 31.16h-28.789v-87.363c0-6.1172-3.2617-11.77-8.5586-14.828s-11.824-3.0586-17.121 0c-5.2969 3.0586-8.5625 8.7109-8.5625 14.828v386.59c0 6.1172 3.2656 11.77 8.5625 14.828 5.2969 3.0586 11.824 3.0586 17.121 0s8.5586-8.7109 8.5586-14.828v-87.363h28.785l31.16 31.16h0.003906c2.8281 2.8242 6.6602 4.4141 10.656 4.4141z"/>
  <use x="70" y="625.625" xlink:href="#x"/>
  <use x="86.054688" y="625.625" xlink:href="#b"/>
  <use x="96.839844" y="625.625" xlink:href="#a"/>
  <use x="111.679687" y="625.625" xlink:href="#e"/>
  <use x="126.4375" y="625.625" xlink:href="#d"/>
  <use x="136.894531" y="625.625" xlink:href="#a"/>
  <use x="151.730469" y="625.625" xlink:href="#k"/>
  <use x="175.007812" y="625.625" xlink:href="#j"/>
  <use x="190.664062" y="625.625" xlink:href="#i"/>
  <use x="212.539062" y="625.625" xlink:href="#h"/>
  <use x="230.699219" y="625.625" xlink:href="#a"/>
  <use x="245.535156" y="625.625" xlink:href="#w"/>
  <use x="253.03125" y="625.625" xlink:href="#v"/>
  <use x="273.242188" y="625.625" xlink:href="#e"/>
  <use x="288.003906" y="625.625" xlink:href="#b"/>
  <use x="306.40625" y="625.625" xlink:href="#u"/>
  <use x="324.714844" y="625.625" xlink:href="#c"/>
  <use x="339.742188" y="625.625" xlink:href="#g"/>
  <use x="352.761719" y="625.625" xlink:href="#g"/>
  <use x="365.78125" y="625.625" xlink:href="#e"/>
  <use x="380.542969" y="625.625" xlink:href="#t"/>
  <use x="388.042969" y="625.625" xlink:href="#f"/>
  <use x="70" y="647.5" xlink:href="#s"/>
  <use x="79.515625" y="647.5" xlink:href="#b"/>
  <use x="90.304688" y="647.5" xlink:href="#c"/>
  <use x="105.332031" y="647.5" xlink:href="#r"/>
  <use x="135.742188" y="647.5" xlink:href="#d"/>
  <use x="146.199219" y="647.5" xlink:href="#q"/>
  <use x="161.773438" y="647.5" xlink:href="#a"/>
  <use x="184.222656" y="647.5" xlink:href="#p"/>
  <use x="202.53125" y="647.5" xlink:href="#c"/>
  <use x="217.558594" y="647.5" xlink:href="#o"/>
  <use x="233.132812" y="647.5" xlink:href="#f"/>
  <use x="256.320312" y="647.5" xlink:href="#n"/>
  <use x="272.355469" y="647.5" xlink:href="#b"/>
  <use x="283.140625" y="647.5" xlink:href="#c"/>
  <use x="298.171875" y="647.5" xlink:href="#m"/>
  <use x="305.667969" y="647.5" xlink:href="#a"/>
  <use x="320.503906" y="647.5" xlink:href="#l"/>
  <use x="333.472656" y="647.5" xlink:href="#d"/>
 </g>
</svg>
